<?xml version="1.0" standalone="no"?>
<!DOCTYPE svg PUBLIC "-//W3C//DTD SVG 20010904//EN"
 "http://www.w3.org/TR/2001/REC-SVG-20010904/DTD/svg10.dtd">
<svg version="1.0" xmlns="http://www.w3.org/2000/svg"
 width="789.000000pt" height="502.000000pt" viewBox="0 0 789.000000 502.000000"
 preserveAspectRatio="xMidYMid meet">

<g transform="translate(0.000000,502.000000) scale(0.100000,-0.100000)"
fill="#000000" stroke="none">
<path d="M1748 4997 c-3 -14 1 -36 8 -48 13 -23 13 -23 13 11 1 46 -14 72 -21
37z"/>
<path d="M1712 4798 c5 -15 28 -23 28 -10 0 5 -7 13 -16 16 -10 4 -14 1 -12
-6z"/>
<path d="M1720 4749 c0 -18 -3 -20 -9 -10 -7 11 -10 10 -14 -5 -4 -18 -5 -18
-6 1 -1 19 -3 18 -21 -5 l-20 -25 -6 23 c-12 41 -24 22 -24 -38 l0 -60 36 0
c29 0 35 -3 30 -16 -3 -9 -6 -18 -6 -20 0 -2 -13 -4 -30 -4 -16 0 -30 -4 -30
-10 0 -5 -8 -10 -18 -10 -10 0 -23 -5 -30 -12 -9 -9 -12 -9 -12 0 0 7 -7 12
-15 12 -11 0 -15 -12 -15 -45 0 -25 -4 -45 -10 -45 -17 0 -46 -53 -32 -58 14
-4 16 -51 2 -72 -9 -15 -11 -13 -14 12 -1 16 -45 38 -71 37 -17 -1 -17 -2 -2
-6 9 -2 17 -8 17 -13 0 -9 -88 20 -435 148 -468 171 -585 212 -621 218 -40 6
-42 5 -48 -22 -16 -78 -32 -1441 -28 -2414 l2 -685 54 -82 c30 -45 51 -84 48
-87 -3 -3 0 -6 6 -6 6 0 35 -41 64 -91 29 -49 60 -101 68 -113 8 -13 39 -64
69 -112 30 -49 77 -114 106 -144 46 -49 61 -68 100 -128 6 -9 16 -23 22 -31
52 -67 218 -301 238 -335 14 -24 47 -68 73 -98 26 -30 101 -132 167 -226 l120
-172 1917 0 1918 0 97 44 c54 24 109 47 123 51 51 16 200 96 235 126 47 41 61
71 68 142 6 64 12 57 -98 126 -179 113 -320 204 -324 207 -2 2 8 15 22 28 17
16 27 36 27 53 0 15 7 41 15 57 10 18 15 58 15 115 1 114 -5 149 -35 212 -29
64 -30 75 -8 125 9 22 16 42 15 47 -1 4 3 7 10 7 6 0 9 3 6 6 -4 3 9 36 27 73
37 74 43 127 30 241 l-7 66 82 37 81 37 87 -30 c47 -16 94 -30 103 -30 21 0
124 -43 279 -118 69 -33 156 -72 194 -87 132 -52 442 -196 502 -234 81 -51
125 -64 54 -16 -95 64 -380 204 -561 275 -66 26 -129 55 -194 87 -78 39 -201
92 -303 129 -158 57 -187 75 -140 87 26 7 147 -18 185 -38 15 -8 31 -11 37 -7
6 4 43 10 81 14 39 3 93 12 120 18 28 6 82 15 120 21 39 5 79 14 90 19 42 21
154 31 221 20 36 -6 70 -7 77 -3 14 9 32 7 157 -17 66 -12 114 -15 159 -11 59
7 67 5 107 -22 57 -37 82 -70 90 -116 3 -20 12 -53 20 -74 7 -20 14 -39 14
-42 0 -3 0 -9 0 -13 0 -10 82 -52 102 -52 7 0 52 -20 98 -43 61 -31 102 -46
145 -50 68 -7 92 4 146 62 28 31 29 36 29 130 0 89 -2 102 -26 136 -14 21 -22
41 -17 46 12 12 190 16 236 5 l37 -8 0 201 0 201 -27 11 c-26 10 -105 18 -378
39 -154 12 -177 20 -199 74 -8 19 -28 44 -44 56 -17 13 -33 31 -35 41 -3 12
-18 22 -36 25 -21 5 -31 12 -31 25 0 14 -7 19 -30 19 -36 0 -80 19 -80 36 0 6
-7 14 -15 18 -8 3 -15 17 -15 31 0 14 -5 25 -11 25 -5 0 -8 4 -4 9 3 5 1 12
-5 16 -5 3 -7 17 -4 31 4 14 2 24 -5 24 -6 0 -16 20 -22 45 -6 25 -15 48 -20
51 -5 3 -9 13 -9 23 0 13 7 17 28 16 15 -1 19 0 9 2 -10 3 -20 17 -24 34 -3
16 -10 32 -14 35 -5 3 -9 12 -9 21 0 8 -9 26 -20 40 -26 34 -25 43 5 43 14 0
28 7 32 15 10 27 -41 108 -92 147 -27 20 -54 47 -61 60 -7 13 -30 37 -53 53
-38 28 -53 55 -31 55 23 0 7 18 -30 35 -22 10 -40 23 -39 29 3 25 -4 33 -71
71 -40 23 -68 45 -65 52 3 9 -10 15 -38 19 -31 5 -51 17 -77 45 -31 33 -41 37
-83 37 -26 0 -54 5 -61 11 -7 6 -22 10 -32 10 -11 -1 -39 -1 -64 0 -42 1 -44
3 -26 16 38 29 24 31 -164 19 -169 -10 -403 -7 -484 6 -43 7 -80 7 -104 1 -20
-5 -69 -9 -109 -10 -40 -1 -84 -6 -98 -11 -15 -6 -73 -10 -130 -10 -107 0
-123 6 -117 43 2 9 -1 17 -7 17 -15 0 -35 82 -46 190 -16 155 -71 278 -139
315 -30 16 -40 17 -74 7 -41 -12 -120 -86 -187 -174 -46 -62 -60 -68 -144 -68
-52 0 -81 -5 -108 -20 -21 -11 -45 -20 -54 -20 -9 0 -32 -7 -52 -15 -19 -8
-37 -12 -40 -8 -8 7 -118 -29 -183 -59 -19 -9 -32 -9 -57 0 -17 6 -33 8 -36 3
-15 -21 -57 -31 -134 -31 -72 0 -99 5 -196 40 -61 22 -125 40 -141 40 -27 0
-30 -3 -30 -30 0 -17 11 -52 25 -78 26 -48 34 -59 144 -203 56 -73 65 -91 69
-134 3 -48 1 -53 -53 -123 -31 -40 -61 -85 -67 -100 -25 -64 -34 -118 -26
-147 5 -16 11 -50 13 -75 2 -25 7 -58 10 -75 3 -16 7 -48 9 -70 2 -22 5 -41 6
-42 7 -7 5 -29 -3 -40 -7 -9 -5 -13 7 -13 13 0 13 -3 -4 -20 -11 -11 -20 -29
-20 -39 0 -11 -5 -23 -11 -27 -8 -5 -6 -10 5 -16 12 -7 22 -5 34 4 9 7 4 -2
-11 -21 -19 -23 -25 -36 -17 -41 7 -5 0 -17 -21 -34 -24 -21 -29 -30 -19 -36
7 -5 11 -18 8 -34 -3 -14 -1 -27 3 -28 5 -2 0 -21 -11 -44 -21 -42 -37 -144
-23 -144 4 0 8 -41 8 -91 0 -69 4 -94 15 -102 8 -7 14 -22 12 -34 -2 -16 3
-26 20 -32 13 -5 42 -23 66 -40 32 -24 42 -38 42 -60 0 -15 10 -40 21 -55 12
-15 19 -30 15 -33 -6 -6 -60 26 -348 204 -186 115 -181 114 -327 88 -46 -8
-87 -13 -90 -11 -4 3 3 103 16 223 12 120 41 421 63 668 23 248 48 494 56 547
19 132 18 181 -3 200 -10 9 -49 26 -88 38 -38 13 -153 54 -255 92 -102 38
-293 110 -425 160 -132 49 -286 108 -342 130 l-103 40 0 53 c0 32 5 57 14 64
12 10 21 49 32 146 2 22 9 69 14 105 8 58 5 128 -6 139 -2 2 -4 -7 -4 -20z
m-6 -126 c-11 -77 -19 -77 -20 2 0 61 2 71 14 59 9 -10 11 -27 6 -61z m1663
-789 c-3 -3 -12 -4 -19 -1 -8 3 -5 6 6 6 11 1 17 -2 13 -5z m270 -574 c23 -18
23 -20 6 -20 -19 0 -43 17 -43 32 0 13 10 9 37 -12z m413 -164 c0 -27 5 -36
23 -42 12 -3 28 -11 35 -17 11 -9 11 -12 -5 -18 -10 -3 -25 -3 -33 2 -27 14
-55 22 -67 20 -20 -3 -15 43 7 67 29 31 40 27 40 -12z m-129 -3 c27 -34 35
-58 29 -82 -5 -21 -12 -25 -49 -27 -41 -2 -138 -45 -153 -68 -4 -6 -10 -8 -13
-4 -7 7 88 89 125 108 l24 13 -22 8 c-19 7 -20 11 -11 39 13 35 47 41 70 13z
m7 -140 c-2 -9 -9 -18 -17 -21 -9 -3 -11 0 -6 9 5 8 -3 4 -17 -8 -13 -13 -31
-23 -40 -23 -9 0 -21 -7 -28 -15 -7 -8 -17 -15 -23 -15 -21 0 58 71 88 79 44
13 47 13 43 -6z m574 -12 c46 -29 67 -51 50 -51 -5 0 -25 12 -45 28 -19 15
-43 32 -53 39 -11 6 -14 12 -8 12 5 1 31 -12 56 -28z m-143 -72 c23 -34 39
-64 36 -67 -6 -6 -18 8 -65 75 -32 44 -35 53 -21 53 5 0 28 -28 50 -61z m111
51 c13 -8 13 -10 -2 -10 -9 0 -20 5 -23 10 -8 13 5 13 25 0z m-9 -57 l34 -36
-42 33 c-24 18 -43 35 -43 37 0 12 21 -2 51 -34z m-418 -11 c24 -21 21 -35 -4
-21 -17 9 -23 8 -30 -2 -12 -20 -21 -5 -13 25 6 26 14 26 47 -2z m-358 -26
c-22 -19 -40 -40 -40 -47 0 -8 -8 -14 -17 -14 -9 0 -24 -7 -35 -16 -22 -20
-53 -37 -38 -22 36 38 151 133 160 133 5 0 -8 -16 -30 -34z m-184 -179 c-10
-9 -11 -8 -5 6 3 10 9 15 12 12 3 -3 0 -11 -7 -18z m-713 -597 c15 0 15 -2 2
-10 -21 -14 -43 -12 -34 2 5 8 2 9 -10 5 -11 -4 -15 -3 -11 4 4 6 14 8 22 5 8
-3 22 -6 31 -6z m42 -25 c-14 -16 -50 -21 -50 -6 0 5 12 12 28 14 15 2 29 5
31 6 2 0 -2 -6 -9 -14z m75 3 c5 4 5 1 1 -5 -9 -16 6 -17 22 -1 9 9 12 9 12
-1 0 -7 5 -9 13 -5 7 5 6 1 -3 -10 -8 -10 -16 -14 -17 -10 -2 5 -21 9 -43 8
-22 0 -40 1 -40 2 0 1 3 9 6 18 4 12 11 13 24 6 9 -5 21 -6 25 -2z m75 -23
c-14 -17 -1 -20 18 -5 7 5 6 3 -2 -6 -18 -21 -43 -9 -25 12 6 8 14 14 16 14 3
0 0 -7 -7 -15z m70 2 c0 -2 -10 -12 -22 -23 l-23 -19 19 23 c18 21 26 27 26
19z m2288 -1225 c2 -7 -2 -10 -12 -6 -9 3 -16 11 -16 16 0 13 23 5 28 -10z
m-1708 -202 c0 -5 -5 -10 -11 -10 -5 0 -7 5 -4 10 3 6 8 10 11 10 2 0 4 -4 4
-10z"/>
<path d="M1420 4580 c0 -5 7 -10 16 -10 8 0 12 5 9 10 -3 6 -10 10 -16 10 -5
0 -9 -4 -9 -10z"/>
<path d="M7582 4481 c4 -13 18 -16 19 -4 0 4 -5 9 -11 12 -7 2 -11 -2 -8 -8z"/>
<path d="M7526 4355 c-12 -32 -7 -46 17 -43 16 2 22 10 22 28 0 29 -29 40 -39
15z"/>
<path d="M7569 4263 c-8 -20 -6 -30 5 -42 14 -13 18 -13 36 4 25 23 26 41 1
55 -28 14 -30 13 -42 -17z"/>
<path d="M3244 2635 c11 -8 25 -15 30 -15 6 0 2 7 -8 15 -11 8 -25 15 -30 15
-6 0 -2 -7 8 -15z"/>
</g>
</svg>
